<?xml version="1.0" encoding="UTF-8"?>
<svg xmlns="http://www.w3.org/2000/svg" viewBox="0 0 1100 960" role="img" aria-label="Kay&#241;iawlu - Le compagnon num&#233;rique des ateliers de couture">
  <!-- Monogramme : aiguille + fil -->
  <g transform="translate(156,-97.5) scale(0.75)">
    <g transform="translate(0,1024) scale(0.1,-0.1)">
    <!-- Fil dor -->
    <g fill="#DAA548">
      <path d="M7865 7843 c-138 -17 -290 -65 -452 -143 -334 -160 -648 -430 -1198
-1030 -384 -419 -408 -445 -635 -670 -426 -425 -802 -673 -1152 -761 l-88 -21
-15 -51 c-28 -93 -27 -94 71 -77 356 64 742 289 1176 687 149 136 287 280 663
688 439 476 724 747 962 917 51 36 89 69 85 73 -4 5 -2 5 5 1 7 -4 30 4 51 18
199 125 437 197 652 197 221 0 340 -51 340 -146 0 -117 150 -142 205 -35 68
131 -85 297 -317 344 -71 15 -268 20 -353 9z"/>
      <path d="M4330 7380 c-85 -91 -130 -349 -98 -560 4 -25 4 -36 -1 -25 -6 16
-10 9 -15 -30 -4 -28 -21 -117 -37 -200 -17 -82 -43 -224 -59 -315 -16 -91
-36 -207 -45 -259 -9 -52 -14 -102 -12 -112 3 -10 0 -20 -6 -22 -6 -2 -7 -11
-2 -23 7 -17 9 -16 16 11 30 106 69 290 65 302 -3 8 -2 12 2 9 11 -7 55 191
46 206 -4 6 -3 8 3 5 7 -4 14 8 17 31 15 80 99 428 109 447 5 11 20 32 32 47
74 88 136 403 96 478 -28 50 -70 54 -111 10z"/>
      <path d="M2610 5405 c-161 -19 -291 -45 -283 -58 4 -6 0 -8 -10 -4 -36 13
-383 -114 -370 -136 3 -6 1 -7 -4 -4 -12 8 -156 -77 -220 -129 -212 -174 -358
-415 -402 -668 -21 -114 -6 -397 19 -381 5 3 6 -3 3 -13 -2 -10 7 -49 22 -87
124 -329 403 -529 783 -561 78 -7 286 12 278 25 -2 3 15 6 37 7 82 2 308 93
442 177 154 97 305 229 434 381 139 164 161 196 161 234 0 20 5 63 11 98 19
109 10 107 -76 -11 -308 -426 -584 -644 -945 -747 -154 -44 -383 -48 -515 -9
-440 128 -652 583 -483 1036 52 136 191 324 313 421 11 8 13 12 5 8 -8 -4 -11
-3 -7 1 4 5 13 10 20 11 7 1 37 18 67 38 374 250 989 314 1648 170 83 -18 102
-15 102 20 0 14 5 37 10 52 16 41 1 49 -150 77 -354 67 -631 83 -890 52z"/>
      <path d="M8991 3141 c-10 -10 -22 -33 -26 -50 -20 -91 -148 -275 -275 -393
-148 -139 -313 -229 -518 -281 -116 -29 -415 -32 -529 -4 -132 32 -96 5 62
-46 287 -92 564 -91 775 5 339 154 718 641 595 763 -29 30 -58 32 -84 6z"/>
    </g>

    <!-- Aiguille et ruban vert (visibles sur fond clair) -->
    <g fill="#022A24">
      <path d="M4608 8416 c-97 -35 -182 -104 -268 -218 -211 -280 -343 -745 -494
-1738 -44 -289 -57 -382 -151 -1075 -14 -99 -41 -304 -60 -455 -20 -151 -49
-376 -66 -500 -16 -124 -39 -292 -50 -375 -11 -82 -28 -215 -39 -295 -35 -262
-59 -443 -74 -565 -8 -66 -27 -210 -41 -320 -28 -212 -43 -333 -99 -805 -52
-439 -53 -450 -29 -450 22 0 21 -2 149 440 36 124 81 279 101 345 19 66 46
158 60 205 13 47 85 294 158 550 125 437 178 621 290 1005 448 1544 853 2969
924 3254 132 527 84 910 -125 997 -42 17 -137 17 -186 0z m41 -461 c45 -58 52
-196 21 -381 -21 -121 -142 -612 -319 -1294 -95 -369 -163 -631 -305 -1190
-198 -779 -289 -1132 -385 -1500 -23 -85 -57 -218 -77 -295 -67 -266 -67 -223
0 186 30 184 80 492 111 684 117 721 500 3008 536 3199 50 269 156 490 277
583 56 43 111 46 141 8z"/>
      <path d="M4555 5129 c-73 -24 -186 -49 -225 -49 -17 0 -30 -7 -34 -16 -8 -20
-12 -16 50 -47 295 -148 549 -427 959 -1052 268 -408 303 -461 385 -575 582
-810 1207 -1179 1995 -1179 232 0 397 22 573 76 89 28 105 41 26 22 -144 -34
-417 -4 -609 66 -576 211 -842 464 -1457 1384 -388 580 -503 735 -674 905
-209 210 -447 353 -739 446 -129 41 -175 44 -250 19z"/>
    </g>
      </g>
  </g>

  <!-- Nom : Kayniawlu (Playfair Display SemiBold, vectorise) -->
  <g transform="translate(95.4,730)" fill="#022A24">
    <path d="M126.27457519531251 -134.52V-130.7960046386719Q120.15656127929688 -129.6559814453125 113.69650329589844 -126.00794433593751Q107.2364453125 -122.3599072265625 100.35836181640624 -114.1138330078125L64.37240356445312 -70.07200927734375L73.03667724609375 -83.71427368164062L118.40866333007813 -15.39Q121.33464477539063 -10.9440185546875 124.60261230468751 -8.2840185546875Q127.87057983398438 -5.6240185546875 133.0765380859375 -3.8V0.0Q127.14845458984375 -0.38 119.49139892578125 -0.47500000000000003Q111.83434326171876 -0.5700000000000001 105.716259765625 -0.5700000000000001Q102.03023193359375 -0.5700000000000001 96.65318786621094 -0.47500000000000003Q91.27614379882813 -0.38 83.10607421875 0.0V-3.8Q90.55413452148437 -4.18 92.15012756347656 -6.0039953613281245Q93.74612060546875 -7.82799072265625 90.78212524414063 -12.35L63.118129882812504 -56.050115966796874Q60.07817626953125 -60.9520556640625 57.70321105957031 -63.403025512695315Q55.328245849609374 -65.85399536132813 52.87728759765625 -66.72799072265624Q50.426329345703124 -67.60198608398437 46.6643896484375 -67.79198608398437V-71.66799072265626Q54.79639892578125 -71.93399536132813 61.00944763183594 -75.79105102539063Q67.22249633789063 -79.64810668945313 73.56866333007812 -87.09628295898438L87.09637573242188 -103.89189331054688Q94.05041748046875 -112.25191650390624 95.60837341308594 -118.17994201660156Q97.16632934570313 -124.10796752929687 93.89828063964845 -127.35698608398437Q90.63023193359375 -130.60600463867186 82.95425048828125 -130.7960046386719V-134.52Q87.24829223632813 -134.33 91.39031311035157 -134.235Q95.532333984375 -134.14000000000001 99.84537109375 -134.04500000000002Q104.158408203125 -133.95 108.90850097656251 -133.95Q114.30452880859374 -133.95 118.67454040527343 -134.14Q123.04455200195312 -134.33 126.27457519531251 -134.52ZM62.2063525390625 -134.52V-130.72Q56.05037109375 -130.53 52.87738037109375 -129.29500000000002Q49.7043896484375 -128.06 48.64039428710937 -124.735Q47.57639892578125 -121.41 47.57639892578125 -114.38V-20.14Q47.57639892578125 -13.3 48.67839660644531 -9.88Q49.780394287109374 -6.46 52.91538269042969 -5.32Q56.05037109375 -4.18 62.2063525390625 -3.8V0.0Q57.38032470703125 -0.38 49.989273681640626 -0.47500000000000003Q42.59822265625 -0.5700000000000001 35.0361669921875 -0.5700000000000001Q26.486097412109377 -0.5700000000000001 19.000034790039063 -0.47500000000000003Q11.51397216796875 -0.38 6.9159350585937505 0.0V-3.8Q13.147921142578125 -4.18 16.282909545898438 -5.32Q19.41789794921875 -6.46 20.481893310546877 -9.88Q21.545888671875 -13.3 21.545888671875 -20.14V-114.38Q21.545888671875 -121.41 20.481893310546877 -124.735Q19.41789794921875 -128.06 16.2449072265625 -129.29500000000002Q13.07191650390625 -130.53 6.9159350585937505 -130.72V-134.52Q11.51397216796875 -134.33 19.000034790039063 -134.14Q26.486097412109377 -133.95 35.0361669921875 -133.95Q42.59822265625 -133.95 49.989273681640626 -134.14Q57.38032470703125 -134.33 62.2063525390625 -134.52Z M163.39993041992187 1.33Q155.15390258789063 1.33 149.45390258789064 -1.8050115966796874Q143.75390258789065 -4.940023193359375 140.96091186523438 -10.336027832031249Q138.16792114257814 -15.732032470703125 138.16792114257814 -22.38200927734375Q138.16792114257814 -30.59 141.94891418457033 -35.79599304199219Q145.72990722656252 -41.00198608398438 151.69590026855468 -44.193983764648436Q157.66189331054687 -47.3859814453125 164.29288635253909 -49.53297912597657Q170.92387939453127 -51.679976806640624 176.88987243652343 -53.67497680664063Q182.85586547851562 -55.669976806640626 186.63685852050781 -58.36797912597656Q190.4178515625 -61.0659814453125 190.4178515625 -65.4359814453125V-79.26810668945312Q190.4178515625 -85.27198608398437 188.57488403320315 -89.22397216796875Q186.73191650390626 -93.17595825195312 183.1979443359375 -95.09498840332031Q179.66397216796878 -97.0140185546875 174.41995361328128 -97.0140185546875Q170.35399536132815 -97.0140185546875 166.0030603027344 -95.87403015136718Q161.65212524414065 -94.73404174804688 158.87815307617188 -91.61810668945313Q163.70422729492188 -90.17406494140626 166.51623657226565 -86.56403015136719Q169.3282458496094 -82.95399536132813 169.3282458496094 -77.9759814453125Q169.3282458496094 -72.08591186523438 165.37619018554688 -68.68487243652345Q161.42413452148438 -65.2838330078125 155.68607421875 -65.2838330078125Q149.3400231933594 -65.2838330078125 146.12898376464847 -69.29286315917969Q142.9179443359375 -73.30189331054687 142.9179443359375 -78.73595825195312Q142.9179443359375 -84.0559814453125 145.57795593261721 -87.51400695800781Q148.2379675292969 -90.97203247070313 152.87401855468752 -93.93605102539063Q157.77605102539064 -97.05205566406251 165.12907653808594 -98.93303710937501Q172.48210205078126 -100.81401855468751 181.22210205078125 -100.81401855468751Q189.62013916015627 -100.81401855468751 196.11819946289063 -99.00901855468751Q202.61625976562502 -97.20401855468751 207.06231079101565 -92.79595825195312Q211.62228759765628 -88.38796752929687 212.9902783203125 -81.94697448730469Q214.35826904296874 -75.5059814453125 214.35826904296874 -66.08196289062501V-14.02200927734375Q214.35826904296874 -9.27200927734375 215.47925048828125 -7.3340185546875Q216.60023193359376 -5.39602783203125 219.10819946289064 -5.39602783203125Q220.97018554687503 -5.39602783203125 222.68017395019533 -6.34602783203125Q224.39016235351562 -7.29602783203125 226.5181298828125 -8.93L228.53212524414064 -5.7Q224.46612060546875 -2.431986083984375 219.83005798339843 -0.5509930419921876Q215.19399536132812 1.33 208.80997680664063 1.33Q202.23591186523439 1.33 198.28389099121097 -0.6080023193359374Q194.33187011718752 -2.546004638671875 192.5268701171875 -6.098995361328125Q190.7218701171875 -9.651986083984376 190.64586547851565 -14.591939697265625Q185.97189331054688 -6.953995361328125 179.30292114257813 -2.8119976806640623Q172.63394897460938 1.33 163.39993041992187 1.33ZM174.72420410156252 -9.310185546875001Q179.32210205078127 -9.310185546875001 183.21700927734378 -11.742113647460938Q187.11191650390626 -14.174041748046875 190.4178515625 -19.265911865234376V-57.6459814453125Q188.5178747558594 -54.72 185.02192810058597 -52.45899536132812Q181.5259814453125 -50.19799072265625 177.53605102539063 -47.898983764648435Q173.54612060546876 -45.599976806640626 169.95518554687501 -42.692979125976564Q166.36425048828127 -39.7859814453125 164.04629455566408 -35.45400695800781Q161.72833862304688 -31.122032470703125 161.72833862304688 -24.586097412109375Q161.72833862304688 -17.138106689453124 165.28130615234375 -13.224146118164063Q168.83427368164064 -9.310185546875001 174.72420410156252 -9.310185546875001Z M323.8361437988281 -98.1540185546875V-94.27801391601562Q320.22614379882816 -93.51799072265625 317.07213684082035 -90.24996520996095Q313.91812988281254 -86.98193969726563 311.03011596679687 -78.925888671875L282.834296875 -1.63415771484375L277.02013916015625 7.258385009765625L237.80387939453126 -83.5240185546875Q234.345888671875 -90.85801391601562 231.09690490722656 -92.51101623535156Q227.84792114257812 -94.1640185546875 225.64392578125 -94.1640185546875V-98.1540185546875Q231.19200927734374 -97.5840185546875 237.19609741210937 -97.2990185546875Q243.200185546875 -97.0140185546875 249.20422729492188 -97.0140185546875Q256.3103015136719 -97.0140185546875 262.827299194336 -97.3940185546875Q269.344296875 -97.7740185546875 275.044296875 -98.1540185546875V-94.1640185546875Q270.82632934570313 -94.1640185546875 267.38734558105466 -93.61302551269532Q263.94836181640625 -93.06203247070313 262.84635253906254 -90.49707885742188Q261.74434326171877 -87.93212524414062 264.29030151367186 -81.70023193359376L288.04032470703123 -23.826236572265625L286.5203015136719 -22.990208740234376L303.16399536132815 -68.13350830078124Q306.3940417480469 -77.06367065429687 305.843037109375 -82.63078430175781Q305.29203247070313 -88.19789794921876 301.7200231933594 -91.04795593261719Q298.14801391601566 -93.89801391601563 291.7640417480469 -94.27801391601562V-98.1540185546875Q294.88002319335936 -97.9640185546875 297.8820556640625 -97.83101623535157Q300.88408813476565 -97.69801391601563 303.7911206054688 -97.60301391601563Q306.6981530761719 -97.50801391601563 309.32013916015626 -97.50801391601563Q313.3101159667969 -97.50801391601563 317.24314147949224 -97.69801391601563Q321.1761669921875 -97.88801391601562 323.8361437988281 -98.1540185546875ZM282.834296875 -1.63415771484375 275.766259765625 17.48Q273.9422644042969 22.23 271.9472644042969 25.536004638671876Q269.9522644042969 28.84200927734375 267.52025512695315 30.93200927734375Q264.70826904296877 33.401986083984376 260.5662713623047 34.56099304199219Q256.4242736816406 35.72 251.560185546875 35.72Q247.26614379882812 35.72 243.10506958007812 34.23799072265625Q238.94399536132812 32.7559814453125 236.2079327392578 29.658948974609373Q233.4718701171875 26.56191650390625 233.4718701171875 21.73584228515625Q233.4718701171875 16.339791259765626 237.1199304199219 13.09076110839844Q240.76799072265626 9.84173095703125 246.9620788574219 9.84173095703125Q252.47217163085938 9.84173095703125 256.04421569824217 12.615761108398438Q259.616259765625 15.389791259765625 259.616259765625 20.823856201171875Q259.616259765625 24.43387939453125 257.52622497558593 27.359930419921874Q255.43619018554688 30.2859814453125 251.59808349609375 31.806004638671876Q252.434111328125 31.996004638671874 253.36515075683593 32.034006958007815Q254.2961901855469 32.07200927734375 254.86621337890625 32.07200927734375Q260.3762365722656 32.07200927734375 264.6702551269531 28.481004638671877Q268.96427368164063 24.89 271.776259765625 17.1L278.5402551269531 -1.78607421875Z M398.50623657226566 -100.81401855468751Q406.33427368164064 -100.81401855468751 411.2552783203125 -98.8000115966797Q416.1762829589844 -96.78600463867187 419.1782690429688 -93.44200927734376Q422.4842504882813 -89.7940185546875 423.9282458496094 -84.0940185546875Q425.37224121093755 -78.3940185546875 425.37224121093755 -68.7040185546875V-17.67Q425.37224121093755 -9.69 428.31721801757817 -6.84Q431.2621948242188 -3.99 438.29214843750003 -3.99V0.0Q434.83413452148443 -0.19 427.7661090087891 -0.475Q420.6980834960938 -0.76 413.9720556640625 -0.76Q407.01801391601566 -0.76 400.3869744873047 -0.475Q393.75593505859376 -0.19 390.4119165039063 0.0V-3.99Q396.49187011718755 -3.99 398.96184692382815 -6.84Q401.43182373046875 -9.69 401.43182373046875 -17.67V-75.3161669921875Q401.43182373046875 -80.44612060546875 400.48182373046876 -84.47406494140625Q399.5318237304688 -88.50200927734375 396.73885620117187 -90.85796752929687Q393.945888671875 -93.21392578125 388.4739721679688 -93.21392578125Q382.3180834960938 -93.21392578125 377.4731530761719 -89.79399536132811Q372.62822265625005 -86.37406494140625 369.83525512695314 -80.38918090820312Q367.0422875976563 -74.404296875 367.0422875976563 -66.99443603515626V-17.67Q367.0422875976563 -9.69 369.55026672363283 -6.84Q372.0582458496094 -3.99 378.06219482421875 -3.99V0.0Q374.79418090820315 -0.19 368.39115539550784 -0.475Q361.98812988281253 -0.76 355.26210205078127 -0.76Q348.3080603027344 -0.76 341.0500231933594 -0.475Q333.7919860839844 -0.19 330.181962890625 0.0V-3.99Q337.21191650390625 -3.99 340.15689331054693 -6.84Q343.10187011718756 -9.69 343.10187011718756 -17.67V-77.4440185546875Q343.10187011718756 -85.9940185546875 340.36588867187504 -90.07901855468751Q337.6299072265625 -94.1640185546875 330.181962890625 -94.1640185546875V-98.1540185546875Q336.26196289062506 -97.5840185546875 341.96196289062505 -97.5840185546875Q349.0680603027344 -97.5840185546875 355.3951391601563 -98.2490185546875Q361.72221801757814 -98.9140185546875 367.0422875976563 -100.2440185546875V-81.32023193359375Q371.8302783203125 -92.11210205078125 380.20925048828127 -96.46306030273438Q388.58822265625 -100.81401855468751 398.50623657226566 -100.81401855468751ZM370.19605102539066 -148.20013916015625Q375.78207885742194 -148.20013916015625 379.6752333936505 -146.30013916015625Q383.568387929879 -144.40013916015624 386.7443824199602 -141.93013916015624Q389.9203769100414 -139.46013916015625 393.30127427045045 -137.56013916015627Q396.68217163085944 -135.66013916015626 401.16619018554695 -135.66013916015626Q405.15619018554696 -135.66013916015626 408.86119018554695 -138.03513916015626Q412.56619018554693 -140.41013916015626 415.79619018554695 -145.73013916015626L418.4561901855469 -144.40013916015624Q415.31313304836476 -131.515039086203 409.02701877400034 -125.89244996302337Q402.7409044996359 -120.26986083984374 395.2761437988282 -120.26986083984374Q389.69011596679695 -120.26986083984374 385.7005545996094 -122.16986083984375Q381.7109932324219 -124.06986083984376 378.53980342773445 -126.63486083984375Q375.36861362304694 -129.19986083984375 371.9928309277344 -131.09986083984376Q368.61704823242195 -132.99986083984376 364.11600463867194 -132.99986083984376Q360.12600463867193 -132.99986083984376 356.4210046386719 -130.62486083984376Q352.7160046386719 -128.24986083984376 349.48600463867194 -122.73986083984376L346.8260046386719 -124.06986083984376Q349.9420092773438 -137.06600463867187 356.3328476929897 -142.63307189941406Q362.72368610863555 -148.20013916015625 370.19605102539066 -148.20013916015625Z M469.33808349609376 -146.64207885742186Q476.2542041015625 -146.64207885742186 480.5862481689453 -142.84206726074217Q484.9182922363281 -139.0420556640625 484.9182922363281 -132.80997680664063Q484.9182922363281 -126.57789794921875 480.5862481689453 -122.77788635253907Q476.2542041015625 -118.97787475585938 469.33808349609376 -118.97787475585938Q462.421962890625 -118.97787475585938 458.0899188232422 -122.77788635253907Q453.7578747558594 -126.57789794921875 453.7578747558594 -132.80997680664063Q453.7578747558594 -139.0420556640625 458.0899188232422 -142.84206726074217Q462.421962890625 -146.64207885742186 469.33808349609376 -146.64207885742186ZM482.5622875976563 -100.2440185546875V-17.697283716446314Q482.5622875976563 -9.69 485.5072644042969 -6.84Q488.45224121093753 -3.99 495.48219482421877 -3.99V0.0Q492.0418564055687 -0.19 485.05999314419057 -0.475Q478.0781298828125 -0.76 470.8960974121094 -0.76Q463.8397533240685 -0.76 456.57586970402645 -0.475Q449.3119860839844 -0.19 445.701962890625 0.0V-3.99Q452.73191650390623 -3.99 455.6768933105469 -6.84Q458.62187011718754 -9.69 458.62187011718754 -17.701921948242187V-77.40981646728515Q458.62187011718754 -85.9940185546875 455.90188964843753 -90.07901855468751Q453.1819091796875 -94.1640185546875 445.701962890625 -94.1640185546875V-98.1540185546875Q451.78196289062504 -97.5840185546875 457.481962890625 -97.5840185546875Q464.5880603027344 -97.5840185546875 470.9151391601563 -98.2490185546875Q477.2422180175781 -98.9140185546875 482.5622875976563 -100.2440185546875Z M530.6699304199219 1.33Q522.4239025878907 1.33 516.7239025878906 -1.8050115966796874Q511.02390258789063 -4.940023193359375 508.23091186523436 -10.336027832031249Q505.4379211425781 -15.732032470703125 505.4379211425781 -22.38200927734375Q505.4379211425781 -30.59 509.2189141845703 -35.79599304199219Q512.9999072265625 -41.00198608398438 518.9659002685547 -44.193983764648436Q524.9318933105469 -47.3859814453125 531.5628863525391 -49.53297912597657Q538.1938793945312 -51.679976806640624 544.1598724365234 -53.67497680664063Q550.1258654785156 -55.669976806640626 553.9068585205077 -58.36797912597656Q557.6878515625 -61.0659814453125 557.6878515625 -65.4359814453125V-79.26810668945312Q557.6878515625 -85.27198608398437 555.8448840332031 -89.22397216796875Q554.0019165039063 -93.17595825195312 550.4679443359375 -95.09498840332031Q546.9339721679687 -97.0140185546875 541.6899536132812 -97.0140185546875Q537.6239953613281 -97.0140185546875 533.2730603027344 -95.87403015136718Q528.9221252441406 -94.73404174804688 526.1481530761719 -91.61810668945313Q530.9742272949219 -90.17406494140626 533.7862365722656 -86.56403015136719Q536.5982458496094 -82.95399536132813 536.5982458496094 -77.9759814453125Q536.5982458496094 -72.08591186523438 532.6461901855469 -68.68487243652345Q528.6941345214843 -65.2838330078125 522.95607421875 -65.2838330078125Q516.6100231933593 -65.2838330078125 513.3989837646484 -69.29286315917969Q510.1879443359375 -73.30189331054687 510.1879443359375 -78.73595825195312Q510.1879443359375 -84.0559814453125 512.8479559326172 -87.51400695800781Q515.5079675292968 -90.97203247070313 520.1440185546875 -93.93605102539063Q525.0460510253906 -97.05205566406251 532.3990765380859 -98.93303710937501Q539.7521020507812 -100.81401855468751 548.4921020507812 -100.81401855468751Q556.8901391601562 -100.81401855468751 563.3881994628906 -99.00901855468751Q569.886259765625 -97.20401855468751 574.3323107910156 -92.79595825195312Q578.8922875976563 -88.38796752929687 580.2602783203125 -81.94697448730469Q581.6282690429688 -75.5059814453125 581.6282690429688 -66.08196289062501V-14.02200927734375Q581.6282690429688 -9.27200927734375 582.7492504882812 -7.3340185546875Q583.8702319335937 -5.39602783203125 586.3781994628906 -5.39602783203125Q588.240185546875 -5.39602783203125 589.9501739501952 -6.34602783203125Q591.6601623535156 -7.29602783203125 593.7881298828125 -8.93L595.8021252441406 -5.7Q591.7361206054687 -2.431986083984375 587.1000579833984 -0.5509930419921876Q582.4639953613281 1.33 576.0799768066406 1.33Q569.5059118652343 1.33 565.5538909912109 -0.6080023193359374Q561.6018701171874 -2.546004638671875 559.7968701171875 -6.098995361328125Q557.9918701171875 -9.651986083984376 557.9158654785156 -14.591939697265625Q553.2418933105469 -6.953995361328125 546.5729211425781 -2.8119976806640623Q539.9039489746094 1.33 530.6699304199219 1.33ZM541.9942041015624 -9.310185546875001Q546.5921020507812 -9.310185546875001 550.4870092773438 -11.742113647460938Q554.3819165039063 -14.174041748046875 557.6878515625 -19.265911865234376V-57.6459814453125Q555.7878747558593 -54.72 552.2919281005859 -52.45899536132812Q548.7959814453125 -50.19799072265625 544.8060510253906 -47.898983764648435Q540.8161206054688 -45.599976806640626 537.2251855468751 -42.692979125976564Q533.6342504882813 -39.7859814453125 531.3162945556641 -35.45400695800781Q528.9983386230468 -31.122032470703125 528.9983386230468 -24.586097412109375Q528.9983386230468 -17.138106689453124 532.5513061523437 -13.224146118164063Q536.1042736816406 -9.310185546875001 541.9942041015624 -9.310185546875001Z M642.3143664550781 -98.1540185546875V-94.1640185546875Q637.8683850097656 -94.1640185546875 634.6004058837891 -93.57502319335939Q631.3324267578125 -92.98602783203125 630.2684313964844 -90.44006958007813Q629.2044360351563 -87.894111328125 631.2183850097656 -81.70023193359376L649.8383154296874 -25.156236572265627L647.7482690429688 -23.522125244140625L671.878037109375 -98.53399536132812L675.7540417480468 -96.7859814453125L644.7842736816406 0.569976806640625Q642.5041809082031 0.41796752929687503 640.1860858154297 0.41796752929687503Q637.8679907226563 0.41796752929687503 635.4739025878906 0.569976806640625L605.0739489746094 -83.5240185546875Q602.1859582519531 -91.1240185546875 599.1649536132812 -92.6440185546875Q596.1439489746093 -94.1640185546875 594.0539489746094 -94.1640185546875V-98.1540185546875Q599.3740417480468 -97.5840185546875 605.0931414794921 -97.2990185546875Q610.8122412109375 -97.0140185546875 617.6143664550781 -97.0140185546875Q623.5043664550781 -97.0140185546875 630.0593664550781 -97.3940185546875Q636.6143664550781 -97.7740185546875 642.3143664550781 -98.1540185546875ZM743.2041577148437 -98.1540185546875V-94.27801391601562Q739.5941577148437 -93.51799072265625 736.3451507568359 -90.34496520996095Q733.096143798828 -87.17193969726563 730.3981298828126 -78.925888671875L704.3682226562499 0.569976806640625Q702.0881298828125 0.41796752929687503 699.7700347900391 0.41796752929687503Q697.4519396972656 0.41796752929687503 695.0578515625 0.569976806640625L667.0520092773437 -74.09983764648437L671.9540417480468 -98.53399536132812Q674.6141345214844 -98.38198608398437 677.2932342529297 -98.4199884033203Q679.9723339843749 -98.45799072265625 682.6324267578125 -98.53399536132812L709.8402783203124 -21.20406494140625L707.9402551269532 -22.19219482421875L722.7220092773438 -68.13350830078124Q725.5720556640624 -77.25367065429688 724.9070440673828 -82.78278198242188Q724.2420324707032 -88.31189331054688 720.5750115966797 -91.06695129394532Q716.9079907226562 -93.82200927734375 710.3720092773438 -94.27801391601562V-98.1540185546875Q713.4879907226563 -97.9640185546875 716.6800347900391 -97.83101623535157Q719.8720788574219 -97.69801391601563 722.9691229248047 -97.60301391601563Q726.0661669921875 -97.50801391601563 728.6881530761718 -97.50801391601563Q732.6781298828125 -97.50801391601563 736.6111553955078 -97.69801391601563Q740.5441809082031 -97.88801391601562 743.2041577148437 -98.1540185546875Z M778.8863061523438 -148.80799072265626V-17.66120607486441Q778.8863061523438 -9.69 781.8312829589844 -6.84Q784.776259765625 -3.99 791.8062133789062 -3.99V0.0Q788.3658749602562 -0.19 781.3840116988781 -0.475Q774.4021484374999 -0.76 767.2201159667968 -0.76Q760.1637718787559 -0.76 752.8998882587139 -0.475Q745.6360046386718 -0.19 742.0259814453125 0.0V-3.99Q749.0559350585937 -3.99 752.0009118652343 -6.836685844243959Q754.945888671875 -9.683371688487918 754.945888671875 -17.654092052371002V-126.01793318992436Q754.945888671875 -134.55799072265626 752.225908203125 -138.64299072265624Q749.505927734375 -142.72799072265624 742.0259814453125 -142.72799072265624V-146.71799072265625Q748.1059814453125 -146.14799072265626 753.8059814453125 -146.14799072265626Q760.9120788574219 -146.14799072265626 767.2391577148437 -146.81299072265625Q773.5662365722656 -147.47799072265624 778.8863061523438 -148.80799072265626Z M892.4303015136719 -100.2440185546875V-20.596004638671875Q892.4303015136719 -12.046004638671874 895.2612829589843 -7.9610046386718745Q898.0922644042969 -3.876004638671875 905.3502087402344 -3.876004638671875V0.113995361328125Q899.4602087402344 -0.456004638671875 893.5702087402344 -0.456004638671875Q886.464111328125 -0.456004638671875 880.175034790039 0.11399536132812499Q873.8859582519532 0.683995361328125 868.4898840332031 2.203995361328125V-16.719791259765625Q863.815888671875 -6.2699072265625 855.5509118652344 -1.80495361328125Q847.2859350585937 2.66 837.7099072265626 2.66Q830.2238562011719 2.66 825.245853881836 0.6459930419921875Q820.2678515625 -1.368013916015625 817.2658654785157 -4.71200927734375Q813.9598840332031 -8.36 812.6298840332031 -14.28799072265625Q811.2998840332032 -20.2159814453125 811.2998840332032 -29.45V-77.4440185546875Q811.2998840332032 -85.9940185546875 808.5639025878907 -90.07901855468751Q805.8279211425781 -94.1640185546875 798.3799768066407 -94.1640185546875V-98.1540185546875Q804.4599768066406 -97.5840185546875 810.1599768066407 -97.5840185546875Q817.2660742187501 -97.5840185546875 823.5931530761719 -98.2490185546875Q829.9202319335938 -98.9140185546875 835.2403015136719 -100.2440185546875V-22.8378515625Q835.2403015136719 -17.70789794921875 836.0763061523437 -13.67995361328125Q836.9123107910157 -9.65200927734375 839.5722875976562 -7.296051025390625Q842.2322644042969 -4.9400927734375 847.6281762695313 -4.9400927734375Q853.5180834960938 -4.9400927734375 858.2110162353516 -8.360023193359375Q862.9039489746094 -11.77995361328125 865.6969165039063 -17.707839965820312Q868.4898840332031 -23.635726318359374 868.4898840332031 -31.045587158203126V-77.4440185546875Q868.4898840332031 -85.9940185546875 865.7539025878907 -90.07901855468751Q863.0179211425782 -94.1640185546875 855.5699768066406 -94.1640185546875V-98.1540185546875Q861.6499768066407 -97.5840185546875 867.3499768066406 -97.5840185546875Q874.45607421875 -97.5840185546875 880.7831530761719 -98.2490185546875Q887.1102319335938 -98.9140185546875 892.4303015136719 -100.2440185546875Z"/>
  </g>

  <!-- Tagline (Poppins Medium, vectorise) -->
  <g fill="#C08A3E">
    <g transform="translate(234.6,820)"><path d="M6.426 -3.128H14.416V0.0H2.5500000000000003V-23.630000000000003H6.426Z M29.002000000000002 -20.502000000000002V-13.566H37.162V-10.404H29.002000000000002V-3.1620000000000004H38.182V0.0H25.126V-23.664H38.182V-20.502000000000002Z M77.52000000000001 -23.936Q81.29400000000001 -23.936 84.23500000000001 -22.083Q87.17600000000002 -20.23 88.50200000000001 -16.830000000000002H83.84400000000001Q82.92600000000002 -18.700000000000003 81.29400000000001 -19.618000000000002Q79.662 -20.536 77.52000000000001 -20.536Q75.174 -20.536 73.33800000000001 -19.482Q71.50200000000001 -18.428 70.465 -16.456000000000003Q69.42800000000001 -14.484000000000002 69.42800000000001 -11.866000000000001Q69.42800000000001 -9.248000000000001 70.465 -7.276000000000001Q71.50200000000001 -5.304 73.33800000000001 -4.2330000000000005Q75.174 -3.1620000000000004 77.52000000000001 -3.1620000000000004Q79.662 -3.1620000000000004 81.29400000000001 -4.08Q82.92600000000002 -4.998 83.84400000000001 -6.868H88.50200000000001Q87.17600000000002 -3.4680000000000004 84.23500000000001 -1.6320000000000001Q81.29400000000001 0.20400000000000001 77.52000000000001 0.20400000000000001Q74.188 0.20400000000000001 71.434 -1.343Q68.68 -2.89 67.065 -5.644000000000001Q65.45 -8.398000000000001 65.45 -11.866000000000001Q65.45 -15.334000000000001 67.065 -18.088Q68.68 -20.842000000000002 71.45100000000001 -22.389000000000003Q74.22200000000001 -23.936 77.52000000000001 -23.936Z M99.212 -11.866000000000001Q99.212 -15.334000000000001 100.827 -18.088Q102.44200000000001 -20.842000000000002 105.21300000000001 -22.389000000000003Q107.98400000000001 -23.936 111.28200000000001 -23.936Q114.614 -23.936 117.385 -22.389000000000003Q120.156 -20.842000000000002 121.754 -18.088Q123.352 -15.334000000000001 123.352 -11.866000000000001Q123.352 -8.398000000000001 121.754 -5.627000000000001Q120.156 -2.8560000000000003 117.385 -1.3090000000000002Q114.614 0.23800000000000002 111.28200000000001 0.23800000000000002Q107.98400000000001 0.23800000000000002 105.21300000000001 -1.3090000000000002Q102.44200000000001 -2.8560000000000003 100.827 -5.627000000000001Q99.212 -8.398000000000001 99.212 -11.866000000000001ZM119.37400000000001 -11.866000000000001Q119.37400000000001 -14.484000000000002 118.33700000000002 -16.456000000000003Q117.30000000000001 -18.428 115.46400000000001 -19.482Q113.62800000000001 -20.536 111.28200000000001 -20.536Q108.936 -20.536 107.10000000000001 -19.482Q105.26400000000001 -18.428 104.227 -16.456000000000003Q103.19000000000001 -14.484000000000002 103.19000000000001 -11.866000000000001Q103.19000000000001 -9.248000000000001 104.227 -7.259Q105.26400000000001 -5.2700000000000005 107.10000000000001 -4.199Q108.936 -3.128 111.28200000000001 -3.128Q113.62800000000001 -3.128 115.46400000000001 -4.199Q117.30000000000001 -5.2700000000000005 118.33700000000002 -7.259Q119.37400000000001 -9.248000000000001 119.37400000000001 -11.866000000000001Z M159.52800000000002 -23.630000000000003V0.0H155.65200000000002V-16.184L148.44400000000002 0.0H145.758L138.516 -16.184V0.0H134.64000000000001V-23.630000000000003H138.822L147.118 -5.1000000000000005L155.38 -23.630000000000003Z M180.26800000000003 -9.588000000000001H175.984V0.0H172.10800000000003V-23.630000000000003H180.26800000000003Q182.98800000000003 -23.630000000000003 184.87500000000003 -22.695Q186.76200000000003 -21.76 187.69700000000003 -20.162Q188.63200000000003 -18.564 188.63200000000003 -16.592000000000002Q188.63200000000003 -14.790000000000001 187.78200000000004 -13.192Q186.93200000000002 -11.594000000000001 185.062 -10.591000000000001Q183.192 -9.588000000000001 180.26800000000003 -9.588000000000001ZM184.65400000000002 -16.592000000000002Q184.65400000000002 -20.468 180.26800000000003 -20.468H175.984V-12.750000000000002H180.26800000000003Q182.478 -12.750000000000002 183.56600000000003 -13.753Q184.65400000000002 -14.756 184.65400000000002 -16.592000000000002Z M214.064 -4.828H204.17L202.47 0.0H198.424L206.89 -23.664H211.37800000000001L219.844 0.0H215.764ZM212.976 -7.99 209.13400000000001 -18.972 205.258 -7.99Z M248.098 -16.830000000000002Q247.18000000000004 -18.598000000000003 245.54800000000003 -19.499000000000002Q243.91600000000003 -20.400000000000002 241.77400000000003 -20.400000000000002Q239.42800000000003 -20.400000000000002 237.59200000000004 -19.346000000000004Q235.75600000000003 -18.292 234.71900000000002 -16.354Q233.68200000000002 -14.416 233.68200000000002 -11.866000000000001Q233.68200000000002 -9.316 234.71900000000002 -7.361000000000001Q235.75600000000003 -5.406000000000001 237.59200000000004 -4.352Q239.42800000000003 -3.298 241.77400000000003 -3.298Q244.93600000000004 -3.298 246.90800000000002 -5.066000000000001Q248.88000000000002 -6.8340000000000005 249.32200000000003 -9.860000000000001H240.44800000000004V-12.954H253.47000000000003V-9.928Q253.09600000000003 -7.174 251.51500000000004 -4.862Q249.93400000000003 -2.5500000000000003 247.401 -1.173Q244.86800000000002 0.20400000000000001 241.77400000000003 0.20400000000000001Q238.44200000000004 0.20400000000000001 235.68800000000005 -1.343Q232.93400000000003 -2.89 231.31900000000002 -5.644000000000001Q229.70400000000004 -8.398000000000001 229.70400000000004 -11.866000000000001Q229.70400000000004 -15.334000000000001 231.31900000000002 -18.088Q232.93400000000003 -20.842000000000002 235.70500000000004 -22.389000000000003Q238.47600000000003 -23.936 241.77400000000003 -23.936Q245.54800000000003 -23.936 248.48900000000003 -22.083Q251.43000000000004 -20.23 252.75600000000003 -16.830000000000002Z M284.172 0.0H280.29600000000005L268.634 -17.646V0.0H264.75800000000004V-23.664H268.634L280.29600000000005 -6.0520000000000005V-23.664H284.172Z M295.46 -11.866000000000001Q295.46 -15.334000000000001 297.075 -18.088Q298.69 -20.842000000000002 301.461 -22.389000000000003Q304.23199999999997 -23.936 307.53 -23.936Q310.862 -23.936 313.63300000000004 -22.389000000000003Q316.404 -20.842000000000002 318.002 -18.088Q319.6 -15.334000000000001 319.6 -11.866000000000001Q319.6 -8.398000000000001 318.002 -5.627000000000001Q316.404 -2.8560000000000003 313.63300000000004 -1.3090000000000002Q310.862 0.23800000000000002 307.53 0.23800000000000002Q304.23199999999997 0.23800000000000002 301.461 -1.3090000000000002Q298.69 -2.8560000000000003 297.075 -5.627000000000001Q295.46 -8.398000000000001 295.46 -11.866000000000001ZM315.622 -11.866000000000001Q315.622 -14.484000000000002 314.58500000000004 -16.456000000000003Q313.548 -18.428 311.712 -19.482Q309.876 -20.536 307.53 -20.536Q305.184 -20.536 303.348 -19.482Q301.512 -18.428 300.475 -16.456000000000003Q299.438 -14.484000000000002 299.438 -11.866000000000001Q299.438 -9.248000000000001 300.475 -7.259Q301.512 -5.2700000000000005 303.348 -4.199Q305.184 -3.128 307.53 -3.128Q309.876 -3.128 311.712 -4.199Q313.548 -5.2700000000000005 314.58500000000004 -7.259Q315.622 -9.248000000000001 315.622 -11.866000000000001Z M350.302 0.0H346.42600000000004L334.764 -17.646V0.0H330.88800000000003V-23.664H334.764L346.42600000000004 -6.0520000000000005V-23.664H350.302Z M398.61600000000004 0.0H394.74000000000007L383.07800000000003 -17.646V0.0H379.20200000000006V-23.664H383.07800000000003L394.74000000000007 -6.0520000000000005V-23.664H398.61600000000004Z M415.038 -23.630000000000003V-8.568000000000001Q415.038 -5.882000000000001 416.449 -4.522Q417.86 -3.1620000000000004 420.37600000000003 -3.1620000000000004Q422.92600000000004 -3.1620000000000004 424.337 -4.522Q425.748 -5.882000000000001 425.748 -8.568000000000001V-23.630000000000003H429.624V-8.636000000000001Q429.624 -5.746 428.366 -3.74Q427.108 -1.7340000000000002 425.0 -0.7480000000000001Q422.892 0.23800000000000002 420.34200000000004 0.23800000000000002Q417.79200000000003 0.23800000000000002 415.701 -0.7480000000000001Q413.61 -1.7340000000000002 412.386 -3.74Q411.16200000000003 -5.746 411.16200000000003 -8.636000000000001V-23.630000000000003Z M467.024 -23.630000000000003V0.0H463.148V-16.184L455.94 0.0H453.254L446.012 -16.184V0.0H442.136V-23.630000000000003H446.31800000000004L454.61400000000003 -5.1000000000000005L462.87600000000003 -23.630000000000003Z M483.48 -20.502000000000002V-13.566H491.64000000000004V-10.404H483.48V-3.1620000000000004H492.66V0.0H479.60400000000004V-23.664H492.66V-20.502000000000002ZM489.464 -28.696 481.95 -24.990000000000002V-27.846L489.464 -31.994000000000003Z M517.174 0.0 511.73400000000004 -9.452H508.776V0.0H504.90000000000003V-23.630000000000003H513.0600000000001Q515.78 -23.630000000000003 517.6669999999999 -22.678000000000004Q519.554 -21.726000000000003 520.489 -20.128Q521.424 -18.53 521.424 -16.558Q521.424 -14.246 520.081 -12.359000000000002Q518.738 -10.472000000000001 515.95 -9.792000000000002L521.798 0.0ZM508.776 -12.546000000000001H513.0600000000001Q515.236 -12.546000000000001 516.341 -13.634Q517.446 -14.722000000000001 517.446 -16.558Q517.446 -18.394000000000002 516.358 -19.431Q515.27 -20.468 513.0600000000001 -20.468H508.776Z M537.744 -23.630000000000003V0.0H533.8679999999999V-23.630000000000003Z M568.616 4.284000000000001 564.468 -0.20400000000000001Q562.938 0.23800000000000002 561.102 0.23800000000000002Q557.804 0.23800000000000002 555.033 -1.3090000000000002Q552.2620000000001 -2.8560000000000003 550.647 -5.627000000000001Q549.032 -8.398000000000001 549.032 -11.866000000000001Q549.032 -15.334000000000001 550.647 -18.088Q552.2620000000001 -20.842000000000002 555.033 -22.389000000000003Q557.804 -23.936 561.102 -23.936Q564.434 -23.936 567.2049999999999 -22.389000000000003Q569.976 -20.842000000000002 571.5740000000001 -18.088Q573.172 -15.334000000000001 573.172 -11.866000000000001Q573.172 -8.602 571.761 -5.9670000000000005Q570.35 -3.3320000000000003 567.868 -1.7340000000000002L573.546 4.284000000000001ZM561.102 -3.128Q563.448 -3.128 565.284 -4.199Q567.12 -5.2700000000000005 568.1569999999999 -7.259Q569.194 -9.248000000000001 569.194 -11.866000000000001Q569.194 -14.484000000000002 568.1569999999999 -16.456000000000003Q567.12 -18.428 565.284 -19.482Q563.448 -20.536 561.102 -20.536Q558.756 -20.536 556.92 -19.482Q555.084 -18.428 554.047 -16.456000000000003Q553.01 -14.484000000000002 553.01 -11.866000000000001Q553.01 -9.248000000000001 554.047 -7.259Q555.084 -5.2700000000000005 556.92 -4.199Q558.756 -3.128 561.102 -3.128Z M588.4040000000001 -23.630000000000003V-8.568000000000001Q588.4040000000001 -5.882000000000001 589.815 -4.522Q591.2260000000001 -3.1620000000000004 593.7420000000001 -3.1620000000000004Q596.292 -3.1620000000000004 597.703 -4.522Q599.114 -5.882000000000001 599.114 -8.568000000000001V-23.630000000000003H602.99V-8.636000000000001Q602.99 -5.746 601.732 -3.74Q600.474 -1.7340000000000002 598.366 -0.7480000000000001Q596.258 0.23800000000000002 593.7080000000001 0.23800000000000002Q591.158 0.23800000000000002 589.067 -0.7480000000000001Q586.9760000000001 -1.7340000000000002 585.7520000000001 -3.74Q584.528 -5.746 584.528 -8.636000000000001V-23.630000000000003Z M619.378 -20.502000000000002V-13.566H627.538V-10.404H619.378V-3.1620000000000004H628.558V0.0H615.502V-23.664H628.558V-20.502000000000002Z"/></g>
    <g transform="translate(250.8,872)"><path d="M22.814 -11.73Q22.814 -8.126000000000001 21.267000000000003 -5.474Q19.720000000000002 -2.822 16.881 -1.411Q14.042000000000002 0.0 10.268 0.0H2.5500000000000003V-23.630000000000003H10.268Q14.042000000000002 -23.630000000000003 16.881 -22.185000000000002Q19.720000000000002 -20.740000000000002 21.267000000000003 -18.037000000000003Q22.814 -15.334000000000001 22.814 -11.73ZM18.836000000000002 -11.73Q18.836000000000002 -15.844000000000001 16.626 -18.156Q14.416 -20.468 10.268 -20.468H6.426V-3.1620000000000004H10.268Q14.416 -3.1620000000000004 16.626 -5.406000000000001Q18.836000000000002 -7.65 18.836000000000002 -11.73Z M38.012 -20.502000000000002V-13.566H46.172000000000004V-10.404H38.012V-3.1620000000000004H47.19200000000001V0.0H34.136V-23.664H47.19200000000001V-20.502000000000002Z M58.854000000000006 -6.5280000000000005H63.002Q63.138000000000005 -4.998 64.209 -4.0120000000000005Q65.28 -3.0260000000000002 67.218 -3.0260000000000002Q69.224 -3.0260000000000002 70.346 -3.995Q71.468 -4.964 71.468 -6.494000000000001Q71.468 -7.684 70.77100000000002 -8.432Q70.07400000000001 -9.180000000000001 69.037 -9.588000000000001Q68.0 -9.996 66.164 -10.472000000000001Q63.852000000000004 -11.084000000000001 62.407000000000004 -11.713000000000001Q60.962 -12.342 59.94200000000001 -13.668000000000001Q58.922000000000004 -14.994000000000002 58.922000000000004 -17.204Q58.922000000000004 -19.244 59.94200000000001 -20.774Q60.962 -22.304000000000002 62.798 -23.12Q64.634 -23.936 67.048 -23.936Q70.482 -23.936 72.67500000000001 -22.219Q74.86800000000001 -20.502000000000002 75.10600000000001 -17.51H70.822Q70.72 -18.802 69.598 -19.72Q68.476 -20.638 66.64 -20.638Q64.974 -20.638 63.92 -19.788000000000004Q62.86600000000001 -18.938000000000002 62.86600000000001 -17.34Q62.86600000000001 -16.252000000000002 63.52900000000001 -15.555000000000001Q64.19200000000001 -14.858 65.212 -14.450000000000001Q66.232 -14.042000000000002 68.0 -13.566Q70.346 -12.920000000000002 71.825 -12.274000000000001Q73.304 -11.628 74.34100000000001 -10.285Q75.37800000000001 -8.942 75.37800000000001 -6.698Q75.37800000000001 -4.896000000000001 74.409 -3.2980000000000005Q73.44 -1.7000000000000002 71.587 -0.7310000000000001Q69.73400000000001 0.23800000000000002 67.218 0.23800000000000002Q64.83800000000001 0.23800000000000002 62.93400000000001 -0.5950000000000001Q61.03000000000001 -1.4280000000000002 59.94200000000001 -2.958Q58.854000000000006 -4.488 58.854000000000006 -6.5280000000000005Z M118.01400000000001 -4.828H108.12L106.42 0.0H102.37400000000001L110.84 -23.664H115.328L123.79400000000001 0.0H119.714ZM116.926 -7.99 113.084 -18.972 109.208 -7.99Z M150.21200000000002 -23.630000000000003V-20.468H143.92200000000003V0.0H140.04600000000002V-20.468H133.722V-23.630000000000003Z M165.478 -20.502000000000002V-13.566H173.63800000000003V-10.404H165.478V-3.1620000000000004H174.65800000000002V0.0H161.60200000000003V-23.664H174.65800000000002V-20.502000000000002Z M190.774 -3.128H198.764V0.0H186.89800000000002V-23.630000000000003H190.774Z M213.35 -23.630000000000003V0.0H209.47400000000002V-23.630000000000003Z M229.806 -20.502000000000002V-13.566H237.96600000000004V-10.404H229.806V-3.1620000000000004H238.98600000000002V0.0H225.93000000000004V-23.664H238.98600000000002V-20.502000000000002Z M263.5 0.0 258.06 -9.452H255.102V0.0H251.22600000000003V-23.630000000000003H259.386Q262.106 -23.630000000000003 263.993 -22.678000000000004Q265.88 -21.726000000000003 266.815 -20.128Q267.75 -18.53 267.75 -16.558Q267.75 -14.246 266.40700000000004 -12.359000000000002Q265.064 -10.472000000000001 262.276 -9.792000000000002L268.124 0.0ZM255.102 -12.546000000000001H259.386Q261.562 -12.546000000000001 262.66700000000003 -13.634Q263.772 -14.722000000000001 263.772 -16.558Q263.772 -18.394000000000002 262.68399999999997 -19.431Q261.596 -20.468 259.386 -20.468H255.102Z M279.616 -6.5280000000000005H283.764Q283.9 -4.998 284.971 -4.0120000000000005Q286.04200000000003 -3.0260000000000002 287.98 -3.0260000000000002Q289.986 -3.0260000000000002 291.108 -3.995Q292.23 -4.964 292.23 -6.494000000000001Q292.23 -7.684 291.533 -8.432Q290.836 -9.180000000000001 289.799 -9.588000000000001Q288.762 -9.996 286.926 -10.472000000000001Q284.61400000000003 -11.084000000000001 283.169 -11.713000000000001Q281.724 -12.342 280.704 -13.668000000000001Q279.684 -14.994000000000002 279.684 -17.204Q279.684 -19.244 280.704 -20.774Q281.724 -22.304000000000002 283.56 -23.12Q285.396 -23.936 287.81 -23.936Q291.244 -23.936 293.437 -22.219Q295.63 -20.502000000000002 295.868 -17.51H291.584Q291.482 -18.802 290.36 -19.72Q289.238 -20.638 287.402 -20.638Q285.736 -20.638 284.682 -19.788000000000004Q283.628 -18.938000000000002 283.628 -17.34Q283.628 -16.252000000000002 284.291 -15.555000000000001Q284.954 -14.858 285.97400000000005 -14.450000000000001Q286.994 -14.042000000000002 288.762 -13.566Q291.108 -12.920000000000002 292.587 -12.274000000000001Q294.06600000000003 -11.628 295.103 -10.285Q296.14 -8.942 296.14 -6.698Q296.14 -4.896000000000001 295.171 -3.2980000000000005Q294.202 -1.7000000000000002 292.349 -0.7310000000000001Q290.496 0.23800000000000002 287.98 0.23800000000000002Q285.6 0.23800000000000002 283.696 -0.5950000000000001Q281.79200000000003 -1.4280000000000002 280.704 -2.958Q279.616 -4.488 279.616 -6.5280000000000005Z M344.79400000000004 -11.73Q344.79400000000004 -8.126000000000001 343.24700000000007 -5.474Q341.70000000000005 -2.822 338.86100000000005 -1.411Q336.02200000000005 0.0 332.24800000000005 0.0H324.53000000000003V-23.630000000000003H332.24800000000005Q336.02200000000005 -23.630000000000003 338.86100000000005 -22.185000000000002Q341.70000000000005 -20.740000000000002 343.24700000000007 -18.037000000000003Q344.79400000000004 -15.334000000000001 344.79400000000004 -11.73ZM340.81600000000003 -11.73Q340.81600000000003 -15.844000000000001 338.606 -18.156Q336.396 -20.468 332.24800000000005 -20.468H328.406V-3.1620000000000004H332.24800000000005Q336.396 -3.1620000000000004 338.606 -5.406000000000001Q340.81600000000003 -7.65 340.81600000000003 -11.73Z M359.992 -20.502000000000002V-13.566H368.15200000000004V-10.404H359.992V-3.1620000000000004H369.172V0.0H356.11600000000004V-23.664H369.172V-20.502000000000002Z M408.51 -23.936Q412.284 -23.936 415.225 -22.083Q418.166 -20.23 419.492 -16.830000000000002H414.834Q413.916 -18.700000000000003 412.284 -19.618000000000002Q410.65200000000004 -20.536 408.51 -20.536Q406.16400000000004 -20.536 404.32800000000003 -19.482Q402.492 -18.428 401.45500000000004 -16.456000000000003Q400.418 -14.484000000000002 400.418 -11.866000000000001Q400.418 -9.248000000000001 401.45500000000004 -7.276000000000001Q402.492 -5.304 404.32800000000003 -4.2330000000000005Q406.16400000000004 -3.1620000000000004 408.51 -3.1620000000000004Q410.65200000000004 -3.1620000000000004 412.284 -4.08Q413.916 -4.998 414.834 -6.868H419.492Q418.166 -3.4680000000000004 415.225 -1.6320000000000001Q412.284 0.20400000000000001 408.51 0.20400000000000001Q405.178 0.20400000000000001 402.424 -1.343Q399.67 -2.89 398.055 -5.644000000000001Q396.44 -8.398000000000001 396.44 -11.866000000000001Q396.44 -15.334000000000001 398.055 -18.088Q399.67 -20.842000000000002 402.44100000000003 -22.389000000000003Q405.212 -23.936 408.51 -23.936Z M430.202 -11.866000000000001Q430.202 -15.334000000000001 431.817 -18.088Q433.432 -20.842000000000002 436.20300000000003 -22.389000000000003Q438.97400000000005 -23.936 442.272 -23.936Q445.60400000000004 -23.936 448.375 -22.389000000000003Q451.146 -20.842000000000002 452.744 -18.088Q454.34200000000004 -15.334000000000001 454.34200000000004 -11.866000000000001Q454.34200000000004 -8.398000000000001 452.744 -5.627000000000001Q451.146 -2.8560000000000003 448.375 -1.3090000000000002Q445.60400000000004 0.23800000000000002 442.272 0.23800000000000002Q438.97400000000005 0.23800000000000002 436.20300000000003 -1.3090000000000002Q433.432 -2.8560000000000003 431.817 -5.627000000000001Q430.202 -8.398000000000001 430.202 -11.866000000000001ZM450.36400000000003 -11.866000000000001Q450.36400000000003 -14.484000000000002 449.327 -16.456000000000003Q448.29 -18.428 446.454 -19.482Q444.618 -20.536 442.272 -20.536Q439.92600000000004 -20.536 438.09000000000003 -19.482Q436.254 -18.428 435.217 -16.456000000000003Q434.18 -14.484000000000002 434.18 -11.866000000000001Q434.18 -9.248000000000001 435.217 -7.259Q436.254 -5.2700000000000005 438.09000000000003 -4.199Q439.92600000000004 -3.128 442.272 -3.128Q444.618 -3.128 446.454 -4.199Q448.29 -5.2700000000000005 449.327 -7.259Q450.36400000000003 -9.248000000000001 450.36400000000003 -11.866000000000001Z M469.47200000000004 -23.630000000000003V-8.568000000000001Q469.47200000000004 -5.882000000000001 470.88300000000004 -4.522Q472.29400000000004 -3.1620000000000004 474.81000000000006 -3.1620000000000004Q477.36 -3.1620000000000004 478.771 -4.522Q480.182 -5.882000000000001 480.182 -8.568000000000001V-23.630000000000003H484.05800000000005V-8.636000000000001Q484.05800000000005 -5.746 482.80000000000007 -3.74Q481.54200000000003 -1.7340000000000002 479.434 -0.7480000000000001Q477.326 0.23800000000000002 474.77600000000007 0.23800000000000002Q472.22600000000006 0.23800000000000002 470.13500000000005 -0.7480000000000001Q468.04400000000004 -1.7340000000000002 466.82000000000005 -3.74Q465.59600000000006 -5.746 465.59600000000006 -8.636000000000001V-23.630000000000003Z M511.836 -23.630000000000003V-20.468H505.54600000000005V0.0H501.67V-20.468H495.34600000000006V-23.630000000000003Z M527.0680000000001 -23.630000000000003V-8.568000000000001Q527.0680000000001 -5.882000000000001 528.479 -4.522Q529.8900000000001 -3.1620000000000004 532.4060000000001 -3.1620000000000004Q534.956 -3.1620000000000004 536.367 -4.522Q537.778 -5.882000000000001 537.778 -8.568000000000001V-23.630000000000003H541.654V-8.636000000000001Q541.654 -5.746 540.396 -3.74Q539.138 -1.7340000000000002 537.03 -0.7480000000000001Q534.922 0.23800000000000002 532.3720000000001 0.23800000000000002Q529.822 0.23800000000000002 527.731 -0.7480000000000001Q525.6400000000001 -1.7340000000000002 524.416 -3.74Q523.192 -5.746 523.192 -8.636000000000001V-23.630000000000003Z M566.4399999999999 0.0 561.0 -9.452H558.042V0.0H554.1659999999999V-23.630000000000003H562.326Q565.0459999999999 -23.630000000000003 566.933 -22.678000000000004Q568.8199999999999 -21.726000000000003 569.7549999999999 -20.128Q570.6899999999999 -18.53 570.6899999999999 -16.558Q570.6899999999999 -14.246 569.347 -12.359000000000002Q568.004 -10.472000000000001 565.216 -9.792000000000002L571.064 0.0ZM558.042 -12.546000000000001H562.326Q564.502 -12.546000000000001 565.607 -13.634Q566.712 -14.722000000000001 566.712 -16.558Q566.712 -18.394000000000002 565.624 -19.431Q564.536 -20.468 562.326 -20.468H558.042Z M587.0100000000001 -20.502000000000002V-13.566H595.1700000000001V-10.404H587.0100000000001V-3.1620000000000004H596.19V0.0H583.134V-23.664H596.19V-20.502000000000002Z"/></g>
  </g>
</svg>
