<?xml version="1.0" encoding="UTF-8"?>
<svg xmlns="http://www.w3.org/2000/svg" viewBox="0 0 1024 1024" role="img" aria-label="Kay&#241;iawlu">
  <g transform="translate(0,1024) scale(0.1,-0.1)">
    <!-- Fond vert arrondi -->
    <path fill="#022A24" d="M2300 10129 c-1073 -110 -1970 -942 -2159 -2005 -42 -237 -42 -243
-39 -3114 l3 -2755 27 -136 c99 -507 312 -926 650 -1280 398 -417 938 -685
1488 -739 203 -20 5723 -8 5825 12 551 111 964 325 1324 688 368 370 588 792
689 1320 l26 135 4 2750 c4 3146 8 2988 -94 3346 -258 907 -997 1575 -1944
1756 l-145 28 -2785 1 c-1532 1 -2823 -2 -2870 -7z"/>

    <!-- Fil dor -->
    <g fill="#DAA548">
      <path d="M7865 7843 c-138 -17 -290 -65 -452 -143 -334 -160 -648 -430 -1198
-1030 -384 -419 -408 -445 -635 -670 -426 -425 -802 -673 -1152 -761 l-88 -21
-15 -51 c-28 -93 -27 -94 71 -77 356 64 742 289 1176 687 149 136 287 280 663
688 439 476 724 747 962 917 51 36 89 69 85 73 -4 5 -2 5 5 1 7 -4 30 4 51 18
199 125 437 197 652 197 221 0 340 -51 340 -146 0 -117 150 -142 205 -35 68
131 -85 297 -317 344 -71 15 -268 20 -353 9z"/>
      <path d="M4330 7380 c-85 -91 -130 -349 -98 -560 4 -25 4 -36 -1 -25 -6 16
-10 9 -15 -30 -4 -28 -21 -117 -37 -200 -17 -82 -43 -224 -59 -315 -16 -91
-36 -207 -45 -259 -9 -52 -14 -102 -12 -112 3 -10 0 -20 -6 -22 -6 -2 -7 -11
-2 -23 7 -17 9 -16 16 11 30 106 69 290 65 302 -3 8 -2 12 2 9 11 -7 55 191
46 206 -4 6 -3 8 3 5 7 -4 14 8 17 31 15 80 99 428 109 447 5 11 20 32 32 47
74 88 136 403 96 478 -28 50 -70 54 -111 10z"/>
      <path d="M2610 5405 c-161 -19 -291 -45 -283 -58 4 -6 0 -8 -10 -4 -36 13
-383 -114 -370 -136 3 -6 1 -7 -4 -4 -12 8 -156 -77 -220 -129 -212 -174 -358
-415 -402 -668 -21 -114 -6 -397 19 -381 5 3 6 -3 3 -13 -2 -10 7 -49 22 -87
124 -329 403 -529 783 -561 78 -7 286 12 278 25 -2 3 15 6 37 7 82 2 308 93
442 177 154 97 305 229 434 381 139 164 161 196 161 234 0 20 5 63 11 98 19
109 10 107 -76 -11 -308 -426 -584 -644 -945 -747 -154 -44 -383 -48 -515 -9
-440 128 -652 583 -483 1036 52 136 191 324 313 421 11 8 13 12 5 8 -8 -4 -11
-3 -7 1 4 5 13 10 20 11 7 1 37 18 67 38 374 250 989 314 1648 170 83 -18 102
-15 102 20 0 14 5 37 10 52 16 41 1 49 -150 77 -354 67 -631 83 -890 52z"/>
      <path d="M8991 3141 c-10 -10 -22 -33 -26 -50 -20 -91 -148 -275 -275 -393
-148 -139 -313 -229 -518 -281 -116 -29 -415 -32 -529 -4 -132 32 -96 5 62
-46 287 -92 564 -91 775 5 339 154 718 641 595 763 -29 30 -58 32 -84 6z"/>
    </g>

    <!-- Aiguille et ruban ivoire -->
    <g fill="#F7F5EF">
      <path d="M4608 8416 c-97 -35 -182 -104 -268 -218 -211 -280 -343 -745 -494
-1738 -44 -289 -57 -382 -151 -1075 -14 -99 -41 -304 -60 -455 -20 -151 -49
-376 -66 -500 -16 -124 -39 -292 -50 -375 -11 -82 -28 -215 -39 -295 -35 -262
-59 -443 -74 -565 -8 -66 -27 -210 -41 -320 -28 -212 -43 -333 -99 -805 -52
-439 -53 -450 -29 -450 22 0 21 -2 149 440 36 124 81 279 101 345 19 66 46
158 60 205 13 47 85 294 158 550 125 437 178 621 290 1005 448 1544 853 2969
924 3254 132 527 84 910 -125 997 -42 17 -137 17 -186 0z m41 -461 c45 -58 52
-196 21 -381 -21 -121 -142 -612 -319 -1294 -95 -369 -163 -631 -305 -1190
-198 -779 -289 -1132 -385 -1500 -23 -85 -57 -218 -77 -295 -67 -266 -67 -223
0 186 30 184 80 492 111 684 117 721 500 3008 536 3199 50 269 156 490 277
583 56 43 111 46 141 8z"/>
      <path d="M4555 5129 c-73 -24 -186 -49 -225 -49 -17 0 -30 -7 -34 -16 -8 -20
-12 -16 50 -47 295 -148 549 -427 959 -1052 268 -408 303 -461 385 -575 582
-810 1207 -1179 1995 -1179 232 0 397 22 573 76 89 28 105 41 26 22 -144 -34
-417 -4 -609 66 -576 211 -842 464 -1457 1384 -388 580 -503 735 -674 905
-209 210 -447 353 -739 446 -129 41 -175 44 -250 19z"/>
    </g>
  </g>
</svg>
