<?xml version="1.0" encoding="UTF-8"?>
<svg viewBox="0 0 512 512" fill="none" xmlns="http://www.w3.org/2000/svg" role="img" aria-label="Kay&#241;iawlu">
  <!-- Ribbon -->
  <path
    fill="#0F5B4C"
    d="M 252 272
       C 282 280, 318 306, 344 340
       C 372 376, 392 412, 402 432
       C 410 446, 424 450, 432 434
       C 436 426, 432 418, 424 416
       C 402 430, 382 412, 364 378
       C 340 334, 308 294, 274 278
       C 260 272, 252 272, 252 272
       Z"
  />

  <!-- Thread: left loop -->
  <path
    d="M 76 278
       C 58 244, 64 188, 108 164
       C 146 144, 182 168, 186 206
       C 190 242, 160 268, 182 280
       C 200 290, 218 270, 220 242
       C 222 206, 214 162, 226 124
       L 228 118"
    stroke="#D8A75C"
    stroke-width="18"
    stroke-linecap="round"
    stroke-linejoin="round"
    fill="none"
  />

  <!-- Needle -->
  <path
    fill="#0F5B4C"
    fill-rule="evenodd"
    d="M 220 88
       C 224.8 86.4, 237.2 86.4, 242 88
       L 244.6 104
       C 246 112.8, 245.4 122.4, 243.2 130.8
       L 238 268
       C 235 344, 232.4 392, 229.2 424
       C 228.4 432.8, 227 432.8, 226.2 424
       L 221.4 268
       C 219.2 122.4, 218.6 112.8, 220 104
       Z
       M 231 98.4
       C 226.2 98.4, 222.8 103.2, 222.8 109.2
       C 222.8 115.2, 226.2 120, 231 120
       C 235.8 120, 239.2 115.2, 239.2 109.2
       C 239.2 103.2, 235.8 98.4, 231 98.4
       Z"
  />

  <!-- Thread: exits right -->
  <path
    d="M 232 118
       C 250 102, 308 84, 370 94
       C 416 102, 450 122, 466 150
       C 476 166, 468 176, 454 168"
    stroke="#D8A75C"
    stroke-width="18"
    stroke-linecap="round"
    fill="none"
  />
</svg>
